<svg width="4542" height="2317" xmlns="http://www.w3.org/2000/svg" xmlns:xlink="http://www.w3.org/1999/xlink" xml:space="preserve" overflow="hidden"><g transform="translate(40 14)"><text font-family="Arial,Arial_MSFontService,sans-serif" font-weight="400" font-size="55" transform="matrix(1 0 0 1 28.6956 293)">Set</text><text font-family="Arial,Arial_MSFontService,sans-serif" font-weight="400" font-size="55" transform="matrix(1 0 0 1 28.6956 359)">•</text><text font-family="Arial,Arial_MSFontService,sans-serif" font-weight="700" font-size="55" transform="matrix(1 0 0 1 90.5706 359)">Relpos</text><text font-family="Arial,Arial_MSFontService,sans-serif" font-weight="700" font-size="55" transform="matrix(1 0 0 1 289.373 359)">filter </text><text font-family="Arial,Arial_MSFontService,sans-serif" font-weight="400" font-size="55" transform="matrix(1 0 0 1 28.6956 425)">•</text><text font-family="Arial,Arial_MSFontService,sans-serif" font-weight="700" font-size="55" transform="matrix(1 0 0 1 90.5706 425)">Directions</text><text font-family="Arial,Arial_MSFontService,sans-serif" font-weight="400" font-size="55" transform="matrix(1 0 0 1 28.6956 491)">•</text><text font-family="Arial,Arial_MSFontService,sans-serif" font-weight="700" font-size="55" transform="matrix(1 0 0 1 90.5706 491)">Axial &amp; transverse limit</text><text font-family="Arial,Arial_MSFontService,sans-serif" font-weight="400" font-size="55" transform="matrix(1 0 0 1 28.6956 593)">For protein </text><text font-family="Arial,Arial_MSFontService,sans-serif" font-weight="700" font-size="55" transform="matrix(1 0 0 1 309.425 593)">[A]:</text><text font-family="Arial,Arial_MSFontService,sans-serif" font-weight="400" font-size="55" transform="matrix(1 0 0 1 90.5706 657)">For direction in </text><text font-family="Arial,Arial_MSFontService,sans-serif" font-weight="700" font-size="55" transform="matrix(1 0 0 1 468.696 657)">[axial, transverse]:</text><rect x="549" y="870" width="414" height="166" stroke="#000000" stroke-width="10.3125" stroke-linejoin="round" stroke-miterlimit="10" fill="#92D050"/><text font-family="Arial,Arial_MSFontService,sans-serif" font-weight="400" font-size="55" transform="matrix(1 0 0 1 587.373 939)">Loc. precision </text><text font-family="Arial,Arial_MSFontService,sans-serif" font-weight="400" font-size="55" transform="matrix(1 0 0 1 704.545 1005)">filter</text><rect x="1606" y="902" width="207" height="99" stroke="#000000" stroke-width="10.3125" stroke-linejoin="round" stroke-miterlimit="10" fill="#92D050"/><text font-family="Arial,Arial_MSFontService,sans-serif" font-weight="400" font-size="55" transform="matrix(1 0 0 1 1661.59 971)">n</text><text font-family="Arial,Arial_MSFontService,sans-serif" font-weight="400" font-size="37" transform="matrix(1 0 0 1 1691.96 984)">locs</text><rect x="1073" y="869" width="394" height="166" stroke="#000000" stroke-width="10.3125" stroke-linejoin="round" stroke-miterlimit="10" fill="#FFC000"/><text font-family="Arial,Arial_MSFontService,sans-serif" font-weight="400" font-size="55" transform="matrix(1 0 0 1 1108.44 938)">Observe hist. </text><text font-family="Arial,Arial_MSFontService,sans-serif" font-weight="400" font-size="55" transform="matrix(1 0 0 1 1166.88 1004)">&amp; KDE*</text><text font-family="Arial,Arial_MSFontService,sans-serif" font-weight="400" font-size="37" transform="matrix(1 0 0 1 1353.08 987)">1</text><rect x="2438" y="904" width="316" height="100" stroke="#000000" stroke-width="10.3125" stroke-linejoin="round" stroke-miterlimit="10" fill="#92D050"/><text font-family="Arial,Arial_MSFontService,sans-serif" font-weight="400" font-size="55" transform="matrix(1 0 0 1 2483.44 973)">Fit length</text><rect x="3506" y="647" width="446" height="167" stroke="#000000" stroke-width="10.3125" stroke-linejoin="round" stroke-miterlimit="10" fill="#92D050"/><text font-family="Arial,Arial_MSFontService,sans-serif" font-weight="400" font-size="55" transform="matrix(1 0 0 1 3553.07 716)">Dimension = 1</text><text font-family="Arial,Arial_MSFontService,sans-serif" font-weight="400" font-size="55" transform="matrix(1 0 0 1 3616.1 782)">No norm.</text><rect x="3506" y="1123" width="446" height="166" stroke="#000000" stroke-width="10.3125" stroke-linejoin="round" stroke-miterlimit="10" fill="#92D050"/><text font-family="Arial,Arial_MSFontService,sans-serif" font-weight="400" font-size="55" transform="matrix(1 0 0 1 3553.07 1192)">Dimension = 2</text><text font-family="Arial,Arial_MSFontService,sans-serif" font-weight="400" font-size="55" transform="matrix(1 0 0 1 3654.18 1258)">Norm.</text><rect x="1921" y="869" width="393" height="166" stroke="#000000" stroke-width="10.3125" stroke-linejoin="round" stroke-miterlimit="10" fill="#FFC000"/><text font-family="Arial,Arial_MSFontService,sans-serif" font-weight="400" font-size="55" transform="matrix(1 0 0 1 1955.78 938)">Observe hist. </text><text font-family="Arial,Arial_MSFontService,sans-serif" font-weight="400" font-size="55" transform="matrix(1 0 0 1 2006.48 1004)">&amp; KDE *</text><text font-family="Arial,Arial_MSFontService,sans-serif" font-weight="400" font-size="37" transform="matrix(1 0 0 1 2208.14 987)">1</text><rect x="2860" y="871" width="404" height="167" stroke="#000000" stroke-width="10.3125" stroke-linejoin="round" stroke-miterlimit="10" fill="#FFC000"/><text font-family="Arial,Arial_MSFontService,sans-serif" font-weight="400" font-size="55" transform="matrix(1 0 0 1 2900.05 941)">Observe hist. </text><text font-family="Arial,Arial_MSFontService,sans-serif" font-weight="400" font-size="55" transform="matrix(1 0 0 1 2935.27 1007)">&amp; KDE *</text><text font-family="Arial,Arial_MSFontService,sans-serif" font-weight="400" font-size="37" transform="matrix(1 0 0 1 3136.94 990)">1,2</text><path d="M0.0657698-6.87469 75.692-6.15117 75.5604 7.5982-0.0657698 6.87469ZM68.9488-19.9663 110 1.05236 68.5542 21.2818Z" transform="matrix(1 0 0 -1 963 953.052)"/><path d="M0.0212078-6.87497 104.866-6.55154 104.824 7.19839-0.0212078 6.87497ZM98.0335-20.3227 139.22 0.429462 97.9062 20.9271Z" transform="matrix(1 0 0 -1 1467 952.429)"/><path d="M1813.03 945.125 1886.93 945.418 1886.88 959.168 1812.97 958.875ZM1880.11 931.641 1921.28 952.429 1879.95 972.891Z"/><path d="M2314.1 945.126 2403.48 946.444 2403.28 960.193 2313.9 958.874ZM2396.81 932.595 2437.75 953.826 2396.2 973.84Z"/><path d="M2754.06 947.125 2825.39 947.787 2825.27 961.537 2753.94 960.875ZM2818.65 933.974 2859.7 954.981 2818.26 975.222Z"/><path d="M4.67664-5.03931 221.337 196.028 211.984 206.107-4.67664 5.03931ZM225.651 181.273 241.857 224.451 197.591 211.509Z" transform="matrix(1 0 0 -1 3264 954.451)"/><path d="M3268.95 950.234 3486.98 1176.9 3477.07 1186.43 3259.05 959.766ZM3492.13 1162.41 3505.86 1206.44 3462.4 1191.01Z"/><text font-family="Arial,Arial_MSFontService,sans-serif" font-weight="400" font-size="55" transform="matrix(0.763077 -0.646308 0.646308 0.763077 3308.85 843)">If axial</text><text font-family="Arial,Arial_MSFontService,sans-serif" font-weight="400" font-size="55" transform="matrix(0.704791 0.709415 -0.709415 0.704791 3277.97 1075)">If trans.</text><path d="M1273.83 1035.83 1273.43 1040.05 1272.17 1044.52 1270.14 1048.88 1267.42 1053.11 1264.04 1057.23 1260.04 1061.25 1255.45 1065.17 1250.29 1069 1244.59 1072.74 1238.36 1076.39 1231.63 1079.95 1224.42 1083.42 1216.74 1086.78 1208.63 1090.04 1200.1 1093.19 1191.17 1096.21 1181.88 1099.11 1172.21 1101.88 1151.99 1106.98 1130.62 1111.47 1108.32 1115.27 1085.27 1118.34 1061.65 1120.6 1037.65 1122.01 1013.45 1122.49 989.262 1122.01 965.264 1120.63 941.646 1118.39 918.594 1115.36 896.293 1111.61 874.928 1107.18 854.703 1102.14 845.041 1099.41 835.746 1096.54 826.823 1093.56 818.294 1090.45 810.181 1087.24 802.506 1083.91 795.293 1080.49 788.561 1076.98 782.333 1073.37 776.629 1069.68 771.224 1065.71 765.315 1058.59 770.604 1054.2 776.244 1060.99 775.631 1060.42 780.615 1064.07 780.451 1063.96 785.999 1067.55 785.853 1067.46 791.942 1070.99 791.81 1070.92 798.417 1074.37 798.298 1074.31 805.399 1077.68 805.291 1077.63 812.862 1080.91 812.764 1080.86 820.782 1084.04 820.691 1084.01 829.132 1087.08 829.048 1087.05 837.889 1090.01 837.81 1089.99 847.027 1092.82 846.952 1092.8 856.523 1095.51 856.417 1095.48 876.523 1100.49 876.39 1100.46 897.625 1104.86 897.498 1104.84 919.674 1108.57 919.551 1108.55 942.48 1111.57 942.356 1111.55 965.85 1113.78 965.724 1113.77 989.594 1115.15 989.463 1115.14 1013.52 1115.62 1013.38 1115.62 1037.44 1115.14 1037.31 1115.14 1061.18 1113.74 1061.05 1113.75 1084.55 1111.5 1084.42 1111.51 1107.35 1108.46 1107.23 1108.48 1129.4 1104.7 1129.27 1104.72 1150.51 1100.27 1150.37 1100.3 1170.48 1095.23 1170.37 1095.26 1179.94 1092.51 1179.87 1092.54 1189.09 1089.66 1189.01 1089.69 1197.85 1086.69 1197.76 1086.72 1206.2 1083.61 1206.11 1083.64 1214.13 1080.42 1214.03 1080.47 1221.6 1077.15 1221.49 1077.2 1228.59 1073.79 1228.47 1073.85 1235.08 1070.35 1234.95 1070.42 1241.04 1066.85 1240.89 1066.94 1246.44 1063.31 1246.28 1063.42 1251.26 1059.72 1251.08 1059.86 1255.47 1056.11 1255.27 1056.3 1259.05 1052.5 1258.83 1052.74 1261.98 1048.9 1261.74 1049.22 1264.23 1045.35 1264.01 1045.77 1265.81 1041.87 1265.62 1042.39 1266.73 1038.48 1266.61 1039.09 1266.98 1035.17ZM758.344 1067.24 756.5 1036.55 782.159 1053.49Z"/><path d="M0.262306 3.42748-3.60364 3.72334-3.10559 3.64821-6.96398 4.52334-6.5214 4.39114-10.3647 5.82685-9.98745 5.65949-13.8081 7.63709-13.4952 7.45357-17.2856 9.95439-17.0298 9.76823-20.7825 12.7736-20.5746 12.593-24.282 16.0842-24.1129 15.9134-27.7673 19.8717-27.6291 19.7125-31.2232 24.1193-31.1094 23.9718-34.6354 28.8083-34.5409 28.6719-37.9914 33.9195-37.9121 33.7931-41.2796 39.4332-41.1829 39.2601-47.6382 51.6427-47.5393 51.4365-53.5717 65.1645-53.4968 64.9796-59.0458 79.9035-58.9876 79.7336-63.9928 95.7039-63.9468 95.5437-68.3477 112.411-68.3112 112.256-72.0474 129.871-72.0187 129.719-75.0298 147.931-75.008 147.778-77.2336 166.439-77.2185 166.281-78.5982 185.241-78.5902 185.077-79.0635 204.186-79.0645 203.981-78.3976 223.091-78.4134 222.86-76.4693 241.82-76.4989 241.601-73.3627 260.262-73.4048 260.052-69.1617 278.265-69.216 278.06-63.9513 295.675-64.0184 295.473-57.817 312.34-57.8989 312.138-50.846 328.108-50.9456 327.902-43.1265 342.826-43.2488 342.611-34.7485 356.339-34.9007 356.114-25.8044 368.496-25.9443 368.318-21.1992 373.959-21.3081 373.835-16.4459 379.083-16.5697 378.956-11.6011 383.793-11.7424 383.663-6.67804 388.069-6.83959 387.937-1.69007 391.895-1.875 391.763 3.34903 395.254 3.13755 395.123 8.42543 398.129 7.64294 397.804 12.4834 399.142 10.6513 405.769 5.39948 404.317-0.367597 401.039-5.78966 397.416-11.1122 393.324-16.3278 388.786-21.4287 383.821-26.4071 378.448-31.278 372.658-40.522 360.074-49.159 346.126-57.0887 330.991-64.232 314.815-70.5079 297.746-75.8334 279.928-80.1248 261.508-83.2971 242.632-85.2643 223.446-85.9389 204.119-85.461 184.824-84.0696 165.703-81.8254 146.886-78.7889 128.521-75.0201 110.752-70.5781 93.7274-65.5211 77.5918-59.906 62.4901-53.7874 48.566-47.2333 35.994-43.7768 30.2047-40.2397 24.8254-36.6098 19.8464-32.8903 15.2856-29.0827 11.1615-25.1876 7.49347-21.2039 4.30304-17.1297 1.61501-12.9642-0.541108-8.71043-2.13016-4.38004-3.11235-0.262306-3.42748ZM10.5786 387.996 33.7517 408.202 3.68236 414.617Z" transform="matrix(-6.12323e-17 -1 -1 6.12323e-17 2117.7 1035.25)"/><path d="M0.298926 3.42448-3.56698 3.76194-3.00496 3.6654-6.86332 4.66357-6.37681 4.49803-10.2201 6.13559-9.81991 5.9333-13.6405 8.18895-13.3212 7.97549-17.1116 10.8279-16.8601 10.6193-20.6128 14.0471-20.4152 13.8515-24.1225 17.8335-23.9666 17.6539-27.621 22.1687-27.4967 22.0054-31.0907 27.0317-30.9905 26.8837-34.5166 32.4002-34.4349 32.2657-37.8854 38.2512-37.818 38.1286-41.1854 44.5616-41.1292 44.4492-44.4059 51.3085-44.3585 51.2047-47.5371 58.469-47.4966 58.3726-50.5695 66.0204-50.5347 65.9302-53.4943 73.9404-53.4505 73.8145-58.9995 90.8366-58.9531 90.682-63.9583 108.898-63.922 108.753-68.323 127.992-68.2944 127.854-72.0306 147.945-72.0083 147.81-75.0194 168.583-75.0025 168.448-77.2282 189.732-77.2165 189.594-78.5962 211.22-78.5901 211.075-79.0634 232.872-79.0642 232.691-78.3941 254.488-78.4064 254.284-76.453 275.91-76.4761 275.716-73.325 297.001-73.3582 296.813-69.0949 317.586-69.138 317.402-63.8482 337.493-63.9022 337.309-57.6713 356.548-57.7379 356.361-50.6516 374.577-50.7341 374.382-42.8778 391.405-42.9529 391.252-38.7628 399.262-38.8208 399.156-34.4703 406.803-34.536 406.693-30.0357 413.957-30.1105 413.842-25.4712 420.701-25.5569 420.58-20.7893 427.013-20.8879 426.886-16.0027 432.872-16.117 432.739-11.1248 438.255-11.2579 438.116-6.16946 443.143-6.3251 442.998-1.15114 447.513-1.33359 447.364 3.91523 451.346 3.70121 451.197 9.01418 454.624 8.21584 454.245 13.3648 455.923 11.2343 462.459 5.66149 460.643-0.135899 456.903-5.58263 452.77-10.9253 448.108-16.1578 442.94-21.2734 437.287-26.2649 431.171-31.1245 424.614-35.8438 417.636-40.4142 410.259-44.8266 402.502-49.0843 394.363-57.0205 377.168-64.1812 358.761-70.4722 339.336-75.8105 319.061-80.112 298.102-83.2913 276.626-85.2627 254.801-85.9387 232.813-85.4619 210.854-84.0732 189.087-81.8332 167.665-78.8023 146.756-75.0406 126.528-70.6073 107.148-65.561 88.7826-59.9663 71.6203-56.9668 63.5022-53.8565 55.7609-50.634 48.3964-47.3055 41.4289-43.8765 34.8782-40.3517 28.7639-36.7351 23.1057-33.0294 17.9231-29.2355 13.2359-25.3523 9.06495-21.3762 5.43294-17.3014 2.36653-13.1217-0.101137-8.83468-1.92777-4.44987-3.06214-0.298926-3.42448ZM11.7405 444.708 34.3035 465.594 4.05698 471.113Z" transform="matrix(-6.12323e-17 -1 -1 6.12323e-17 3062.09 1038.8)"/><text font-family="Arial,Arial_MSFontService,sans-serif" font-weight="400" font-size="55" transform="matrix(1 0 0 1 981.871 1215)">Set</text><text font-family="Arial,Arial_MSFontService,sans-serif" font-weight="400" font-size="55" transform="matrix(1 0 0 1 1754.12 1212)">Set </text><text font-family="Arial,Arial_MSFontService,sans-serif" font-style="italic" font-weight="400" font-size="55" transform="matrix(1 0 0 1 1852.09 1212)">or</text><text font-family="Arial,Arial_MSFontService,sans-serif" font-weight="400" font-size="55" transform="matrix(1 0 0 1 1916.25 1212)">choose </text><text font-family="Arial,Arial_MSFontService,sans-serif" font-weight="400" font-size="55" transform="matrix(1 0 0 1 1830.59 1278)">a range</text><text font-family="Arial,Arial_MSFontService,sans-serif" font-weight="400" font-size="55" transform="matrix(1 0 0 1 2685.49 1219)">Set </text><text font-family="Arial,Arial_MSFontService,sans-serif" font-style="italic" font-weight="400" font-size="55" transform="matrix(1 0 0 1 2783.46 1219)">or</text><text font-family="Arial,Arial_MSFontService,sans-serif" font-weight="400" font-size="55" transform="matrix(1 0 0 1 2847.63 1219)">choose </text><text font-family="Arial,Arial_MSFontService,sans-serif" font-weight="400" font-size="55" transform="matrix(1 0 0 1 2761.97 1285)">a range</text><text font-family="Arial,Arial_MSFontService,sans-serif" font-weight="700" font-size="55" transform="matrix(1 0 0 1 3259.49 63)">Note</text><text font-family="Arial,Arial_MSFontService,sans-serif" font-weight="400" font-size="55" transform="matrix(1 0 0 1 3259.49 129)">•</text><text font-family="Arial,Arial_MSFontService,sans-serif" font-weight="400" font-size="55" transform="matrix(1 0 0 1 3321.36 129)">Fit KDEs not histograms to avoid having to </text><text font-family="Arial,Arial_MSFontService,sans-serif" font-weight="400" font-size="55" transform="matrix(1 0 0 1 3321.36 195)">optimise bin size as well</text><text font-family="Arial,Arial_MSFontService,sans-serif" font-weight="400" font-size="55" transform="matrix(1 0 0 1 3259.49 261)">•</text><text font-family="Arial,Arial_MSFontService,sans-serif" font-weight="400" font-size="55" transform="matrix(1 0 0 1 3321.36 261)">*</text><text font-family="Arial,Arial_MSFontService,sans-serif" font-weight="400" font-size="37" transform="matrix(1 0 0 1 3342.56 244)">1</text><text font-family="Arial,Arial_MSFontService,sans-serif" font-weight="400" font-size="55" transform="matrix(1 0 0 1 3363.19 261)">: Check no zeros</text><text font-family="Arial,Arial_MSFontService,sans-serif" font-weight="400" font-size="55" transform="matrix(1 0 0 1 3259.49 327)">•</text><text font-family="Arial,Arial_MSFontService,sans-serif" font-weight="400" font-size="55" transform="matrix(1 0 0 1 3321.36 327)">*</text><text font-family="Arial,Arial_MSFontService,sans-serif" font-weight="400" font-size="37" transform="matrix(1 0 0 1 3342.56 310)">2</text><text font-family="Arial,Arial_MSFontService,sans-serif" font-weight="400" font-size="55" transform="matrix(1 0 0 1 3363.19 327)">: Consider how many peaks to fit</text><text font-family="Arial,Arial_MSFontService,sans-serif" font-weight="400" font-size="55" transform="matrix(1 0 0 1 3259.49 393)">•</text><text font-family="Arial,Arial_MSFontService,sans-serif" font-weight="400" font-size="55" transform="matrix(1 0 0 1 3321.36 393)">i = initial, l = lower, u = upper</text><text font-family="Arial,Arial_MSFontService,sans-serif" font-weight="400" font-size="55" transform="matrix(1 0 0 1 37.6151 903)">Step 1</text><text font-family="Arial,Arial_MSFontService,sans-serif" font-weight="400" font-size="55" transform="matrix(1 0 0 1 37.6151 969)">-</text><text font-family="Arial,Arial_MSFontService,sans-serif" font-weight="400" font-size="55" transform="matrix(1 0 0 1 71.4172 969)">Generate the </text><text font-family="Arial,Arial_MSFontService,sans-serif" font-weight="400" font-size="55" transform="matrix(1 0 0 1 37.6151 1035)">KDE of the RPD</text><rect x="282" y="1684" width="376" height="100" stroke="#000000" stroke-width="10.3125" stroke-linejoin="round" stroke-miterlimit="10" fill="#92D050"/><text font-family="Arial,Arial_MSFontService,sans-serif" font-weight="400" font-size="55" transform="matrix(1 0 0 1 323.711 1754)">Background</text><rect x="1054" y="1683" width="207" height="100" stroke="#000000" stroke-width="10.3125" stroke-linejoin="round" stroke-miterlimit="10" fill="#92D050"/><text font-family="Arial,Arial_MSFontService,sans-serif" font-weight="400" font-size="55" transform="matrix(1 0 0 1 1093.17 1753)">n</text><text font-family="Arial,Arial_MSFontService,sans-serif" font-weight="400" font-size="37" transform="matrix(1 0 0 1 1123.53 1766)">peaks</text><path d="M658.167 1727.13 694.278 1728.01 693.943 1741.75 657.832 1740.87ZM687.74 1714.09 728.475 1735.72 686.735 1755.33Z"/><path d="M954 1726.12 1019.81 1726.13 1019.81 1739.88 954 1739.87ZM1012.94 1712.38 1054.19 1733 1012.94 1753.63Z"/><path d="M1261.15 1726.13 1316.08 1727.36 1315.77 1741.1 1260.85 1739.87ZM1309.51 1713.46 1350.29 1735 1308.59 1754.7Z"/><text font-family="Arial,Arial_MSFontService,sans-serif" font-weight="400" font-size="55" transform="matrix(1 0 0 1 28.6956 1696)">Step 2 </text><text font-family="Arial,Arial_MSFontService,sans-serif" font-weight="400" font-size="55" transform="matrix(1 0 0 1 202.862 1696)">–</text><text font-family="Arial,Arial_MSFontService,sans-serif" font-weight="400" font-size="55" transform="matrix(1 0 0 1 28.6956 1762)">Model </text><text font-family="Arial,Arial_MSFontService,sans-serif" font-weight="400" font-size="55" transform="matrix(1 0 0 1 28.6956 1828)">the RPD</text><path d="M798.5 1894.5C758.183 1894.5 725.5 1889.05 725.5 1882.33L725.5 1747.67C725.5 1740.95 692.817 1735.5 652.5 1735.5 692.817 1735.5 725.5 1730.05 725.5 1723.33L725.5 1588.67C725.5 1581.95 758.183 1576.5 798.5 1576.5" stroke="#000000" stroke-width="6.875" stroke-miterlimit="8" fill="none" fill-rule="evenodd"/><text font-family="Arial,Arial_MSFontService,sans-serif" font-weight="700" font-size="55" transform="matrix(1 0 0 1 745.456 1653)">Null</text><text font-family="Arial,Arial_MSFontService,sans-serif" font-weight="700" font-size="55" transform="matrix(1 0 0 1 745.456 1719)">Flat</text><text font-family="Arial,Arial_MSFontService,sans-serif" font-weight="700" font-size="55" transform="matrix(1 0 0 1 745.456 1785)">Linear</text><text font-family="Arial,Arial_MSFontService,sans-serif" font-weight="700" font-size="55" transform="matrix(1 0 0 1 745.456 1851)">Linear_flat</text><path d="M910.938 1886.5 910.938 1975 904.063 1975 904.062 1886.5ZM921.25 1970.42 907.5 1997.92 893.75 1970.42Z"/><text font-family="Arial,Arial_MSFontService,sans-serif" font-weight="400" font-size="55" transform="matrix(1 0 0 1 1229.15 2064)">Amp. peak 1: </text><text font-family="Arial,Arial_MSFontService,sans-serif" font-weight="700" font-size="55" transform="matrix(1 0 0 1 1568.32 2064)">i, l, u</text><text font-family="Arial,Arial_MSFontService,sans-serif" font-weight="400" font-size="55" transform="matrix(1 0 0 1 1229.15 2130)">Amp. peak 2: </text><text font-family="Arial,Arial_MSFontService,sans-serif" font-weight="700" font-size="55" transform="matrix(1 0 0 1 1568.32 2130)">i, l, u</text><text font-family="Arial,Arial_MSFontService,sans-serif" font-weight="400" font-size="55" transform="matrix(1 0 0 1 1229.15 2196)">…</text><text font-family="Arial,Arial_MSFontService,sans-serif" font-weight="400" font-size="55" transform="matrix(1 0 0 1 696.875 2070)">Bg. slope: </text><text font-family="Arial,Arial_MSFontService,sans-serif" font-weight="700" font-size="55" transform="matrix(1 0 0 1 956.406 2070)">i, l, u</text><text font-family="Arial,Arial_MSFontService,sans-serif" font-weight="400" font-size="55" transform="matrix(1 0 0 1 696.875 2136)">Bg. offset: </text><text font-family="Arial,Arial_MSFontService,sans-serif" font-weight="700" font-size="55" transform="matrix(1 0 0 1 959.431 2136)">i, l, u</text><path d="M1492.5 1895.5C1452.18 1895.5 1419.5 1890.05 1419.5 1883.33L1419.5 1748.67C1419.5 1741.95 1386.82 1736.5 1346.5 1736.5 1386.82 1736.5 1419.5 1731.05 1419.5 1724.33L1419.5 1589.67C1419.5 1582.95 1452.18 1577.5 1492.5 1577.5" stroke="#000000" stroke-width="6.875" stroke-miterlimit="8" fill="none" fill-rule="evenodd"/><text font-family="Arial,Arial_MSFontService,sans-serif" font-weight="700" font-size="55" transform="matrix(1 0 0 1 1449.64 1656)">0</text><text font-family="Arial,Arial_MSFontService,sans-serif" font-weight="700" font-size="55" transform="matrix(1 0 0 1 1449.64 1722)">1</text><text font-family="Arial,Arial_MSFontService,sans-serif" font-weight="700" font-size="55" transform="matrix(1 0 0 1 1449.64 1788)">2</text><text font-family="Arial,Arial_MSFontService,sans-serif" font-weight="700" font-size="55" transform="matrix(1 0 0 1 1449.64 1854)">…</text><path d="M1483.94 1908.5 1483.94 1997 1477.06 1997 1477.06 1908.5ZM1494.25 1992.42 1480.5 2019.92 1466.75 1992.42Z"/><rect x="1656" y="1644" width="206" height="167" stroke="#000000" stroke-width="10.3125" stroke-linejoin="round" stroke-miterlimit="10" fill="#92D050"/><text font-family="Arial,Arial_MSFontService,sans-serif" font-weight="400" font-size="55" transform="matrix(1 0 0 1 1696.63 1714)">Peak </text><text font-family="Arial,Arial_MSFontService,sans-serif" font-weight="400" font-size="55" transform="matrix(1 0 0 1 1707.22 1780)">type</text><path d="M0.0212078-6.87497 104.866-6.55154 104.824 7.19839-0.0212078 6.87497ZM98.0335-20.3227 139.22 0.429462 97.9062 20.9271Z" transform="matrix(1 0 0 -1 1513 1733.43)"/><path d="M3.12215e-05-6.875 45.0939-6.87479 45.0938 6.87521-3.12215e-05 6.875ZM38.219-20.6248 79.4689 0.000360892 38.2188 20.6252Z" transform="matrix(1 0 0 -1 1862 1728)"/><path d="M2088.5 1819.5C2048.18 1819.5 2015.5 1814.05 2015.5 1807.33L2015.5 1740.17C2015.5 1733.45 1982.82 1728 1942.5 1728 1982.82 1728 2015.5 1722.55 2015.5 1715.83L2015.5 1648.67C2015.5 1641.95 2048.18 1636.5 2088.5 1636.5" stroke="#000000" stroke-width="6.875" stroke-miterlimit="8" fill="none" fill-rule="evenodd"/><text font-family="Arial,Arial_MSFontService,sans-serif" font-weight="700" font-size="55" transform="matrix(1 0 0 1 2048.69 1714)">Variable</text><text font-family="Arial,Arial_MSFontService,sans-serif" font-weight="700" font-size="55" transform="matrix(1 0 0 1 2048.69 1780)">Fixed</text><rect x="2377" y="1637" width="319" height="167" stroke="#000000" stroke-width="10.3125" stroke-linejoin="round" stroke-miterlimit="10" fill="#92D050"/><text font-family="Arial,Arial_MSFontService,sans-serif" font-weight="400" font-size="55" transform="matrix(1 0 0 1 2440.41 1707)">Charac</text><text font-family="Arial,Arial_MSFontService,sans-serif" font-weight="400" font-size="55" transform="matrix(1 0 0 1 2616.87 1707)">. </text><text font-family="Arial,Arial_MSFontService,sans-serif" font-weight="400" font-size="55" transform="matrix(1 0 0 1 2434.41 1773)">distance</text><path d="M2696.03 1713.13 2747.03 1713.35 2746.97 1727.1 2695.97 1726.88ZM2740.21 1699.57 2781.37 1720.37 2740.03 1740.82Z"/><path d="M2928.5 1871.5C2888.18 1871.5 2855.5 1866.05 2855.5 1859.33L2855.5 1733.67C2855.5 1726.95 2822.82 1721.5 2782.5 1721.5 2822.82 1721.5 2855.5 1716.05 2855.5 1709.33L2855.5 1583.67C2855.5 1576.95 2888.18 1571.5 2928.5 1571.5" stroke="#000000" stroke-width="6.875" stroke-miterlimit="8" fill="none" fill-rule="evenodd"/><text font-family="Arial,Arial_MSFontService,sans-serif" font-weight="700" font-size="55" transform="matrix(1 0 0 1 2887.31 1634)">One</text><text font-family="Arial,Arial_MSFontService,sans-serif" font-weight="700" font-size="55" transform="matrix(1 0 0 1 2887.31 1700)">Multiple fixed</text><text font-family="Arial,Arial_MSFontService,sans-serif" font-weight="700" font-size="55" transform="matrix(1 0 0 1 2887.31 1766)">Multliple</text><text font-family="Arial,Arial_MSFontService,sans-serif" font-weight="700" font-size="55" transform="matrix(1 0 0 1 3126.79 1766)">ratio</text><text font-family="Arial,Arial_MSFontService,sans-serif" font-weight="700" font-size="55" transform="matrix(1 0 0 1 2887.31 1832)">(</text><text font-family="Arial,Arial_MSFontService,sans-serif" font-weight="700" font-size="55" transform="matrix(1 0 0 1 2905.64 1832)">Charac</text><text font-family="Arial,Arial_MSFontService,sans-serif" font-weight="700" font-size="55" transform="matrix(1 0 0 1 3091.27 1832)">. </text><text font-family="Arial,Arial_MSFontService,sans-serif" font-weight="700" font-size="55" transform="matrix(1 0 0 1 3122.2 1832)">Dist</text><text font-family="Arial,Arial_MSFontService,sans-serif" font-weight="700" font-size="55" transform="matrix(1 0 0 1 3241.37 1832)">ratio)</text><path d="M3148.94 1889.5 3148.94 1978 3142.06 1978 3142.06 1889.5ZM3159.25 1973.42 3145.5 2000.92 3131.75 1973.42Z"/><text font-family="Arial,Arial_MSFontService,sans-serif" font-weight="400" font-size="55" transform="matrix(1 0 0 1 2822.85 2059)">Charac</text><text font-family="Arial,Arial_MSFontService,sans-serif" font-weight="400" font-size="55" transform="matrix(1 0 0 1 2999.31 2059)">. dist. 1: </text><text font-family="Arial,Arial_MSFontService,sans-serif" font-weight="700" font-size="55" transform="matrix(1 0 0 1 3207.85 2059)">i, l, u</text><text font-family="Arial,Arial_MSFontService,sans-serif" font-weight="400" font-size="55" transform="matrix(1 0 0 1 2822.85 2125)">Charac</text><text font-family="Arial,Arial_MSFontService,sans-serif" font-weight="400" font-size="55" transform="matrix(1 0 0 1 2999.31 2125)">. dist. 2: </text><text font-family="Arial,Arial_MSFontService,sans-serif" font-weight="700" font-size="55" transform="matrix(1 0 0 1 3207.85 2125)">i, l, u</text><text font-family="Arial,Arial_MSFontService,sans-serif" font-weight="700" font-size="55" transform="matrix(1 0 0 1 2822.85 2191)">…</text><text font-family="Arial,Arial_MSFontService,sans-serif" font-weight="400" font-size="55" transform="matrix(1 0 0 1 2822.85 2257)">Charac</text><text font-family="Arial,Arial_MSFontService,sans-serif" font-weight="400" font-size="55" transform="matrix(1 0 0 1 3014.78 2257)">broad.:</text><text font-family="Arial,Arial_MSFontService,sans-serif" font-weight="700" font-size="55" transform="matrix(1 0 0 1 3200.97 2257)">i, l, u</text><path d="M2269.13 1719.13 2344.23 1720.5 2343.98 1734.24 2268.87 1732.87ZM2337.6 1706.62 2378.47 1728 2336.85 1747.87Z"/><rect x="3375" y="1660" width="293" height="100" stroke="#000000" stroke-width="10.3125" stroke-linejoin="round" stroke-miterlimit="10" fill="#92D050"/><text font-family="Arial,Arial_MSFontService,sans-serif" font-weight="400" font-size="55" transform="matrix(1 0 0 1 3433.41 1730)">Repeat</text><path d="M3668 1703.13 3730.47 1703.13 3730.47 1716.88 3668 1716.88ZM3723.59 1689.38 3764.84 1710 3723.59 1730.63Z"/><text font-family="Arial,Arial_MSFontService,sans-serif" font-weight="700" font-size="55" transform="matrix(1 0 0 1 3870.91 1692)">True</text><text font-family="Arial,Arial_MSFontService,sans-serif" font-weight="700" font-size="55" transform="matrix(1 0 0 1 3870.91 1758)">False</text><path d="M3946.94 1819.5 3946.94 1908 3940.06 1908 3940.06 1819.5ZM3957.25 1903.42 3943.5 1930.92 3929.75 1903.42Z"/><text font-family="Arial,Arial_MSFontService,sans-serif" font-weight="400" font-size="55" transform="matrix(1 0 0 1 3622.17 2012)">Loc. Prec. S.D.: </text><text font-family="Arial,Arial_MSFontService,sans-serif" font-weight="700" font-size="55" transform="matrix(1 0 0 1 4023.21 2012)">i, l, u</text><text font-family="Arial,Arial_MSFontService,sans-serif" font-weight="400" font-size="55" transform="matrix(1 0 0 1 3622.17 2078)">Loc. Prec. amp: </text><text font-family="Arial,Arial_MSFontService,sans-serif" font-weight="700" font-size="55" transform="matrix(1 0 0 1 4022.63 2078)">i, l, u</text><path d="M3268.13 1706.13 3343.23 1707.5 3342.98 1721.24 3267.87 1719.87ZM3336.6 1693.62 3377.47 1715 3335.85 1734.87Z"/><path d="M3911.5 1806.5C3871.18 1806.5 3838.5 1801.05 3838.5 1794.33L3838.5 1723.67C3838.5 1716.95 3805.82 1711.5 3765.5 1711.5 3805.82 1711.5 3838.5 1706.05 3838.5 1699.33L3838.5 1628.67C3838.5 1621.95 3871.18 1616.5 3911.5 1616.5" stroke="#000000" stroke-width="6.875" stroke-miterlimit="8" fill="none" fill-rule="evenodd"/><path d="M4017.13 1697.13 4092.23 1698.5 4091.98 1712.24 4016.87 1710.87ZM4085.6 1684.62 4126.47 1706 4084.85 1725.87Z"/><text font-family="Arial,Arial_MSFontService,sans-serif" font-weight="400" font-size="55" transform="matrix(1 0 0 1 4131.61 1685)">Compare </text><text font-family="Arial,Arial_MSFontService,sans-serif" font-weight="400" font-size="55" transform="matrix(1 0 0 1 4166.83 1751)">AIC</text><text font-family="Arial,Arial_MSFontService,sans-serif" font-weight="400" font-size="37" transform="matrix(1 0 0 1 4258.5 1764)">corr</text><text font-family="Arial,Arial_MSFontService,sans-serif" font-weight="400" font-size="128" transform="matrix(1 0 0 1 37.6151 150)">Workflow</text></g></svg>